# xmcd
#
# Track frame offsets: 
#        150
#        13131
#        31519
#        48955
#        58875
#        74753
#        90436
#        108565
#        127030
#        135468
#
# Disc length: 2060 seconds
#
# Revision: 0
# Processed by: cddbd v1.5.2PL0 Copyright (c) Steve Scherf et al.
# Submitted via: ExactAudioCopy v0.99pb4
#
DISCID=88080a0a
DTITLE=Common Rotation vs. The Dust Bowl Cavaliers - Common Rotation v
DTITLE=s. The Dust Bowl Cavaliers
DYEAR=2009
DGENRE=Bluegrass
TTITLE0=No Love at All
TTITLE1=Here to Stay
TTITLE2=Get on the idol
TTITLE3=White House Blues
TTITLE4=My Kingdom
TTITLE5=Let's Go for a Drive
TTITLE6=Easy Chair
TTITLE7=Union Maid Fight Song
TTITLE8=Travel Late
TTITLE9=Bitter Honey
EXTD=
EXTT0=
EXTT1=
EXTT2=
EXTT3=
EXTT4=
EXTT5=
EXTT6=
EXTT7=
EXTT8=
EXTT9=
PLAYORDER=
